<svg width="970" height="256" viewBox="0 0 970 256" fill="none" xmlns="http://www.w3.org/2000/svg">
<rect width="256" height="256" rx="128" fill="#25292A"/>
<g filter="url(#filter0_d_1202_867)">
<path d="M136.185 124.016L136.184 124.015C133.81 121.645 130.935 120.45 127.6 120.45C124.265 120.45 121.392 121.645 119.021 124.016C116.647 126.389 115.45 129.264 115.45 132.6C115.45 135.935 116.647 138.808 119.021 141.178C121.391 143.552 124.264 144.75 127.6 144.75C130.936 144.75 133.811 143.553 136.184 141.179C138.555 138.808 139.75 135.935 139.75 132.6C139.75 129.265 138.555 126.39 136.185 124.016ZM152.762 156.487L152.762 156.487C147.286 164.981 138.908 174.444 127.6 184.876C116.292 174.444 107.914 164.981 102.438 156.487L102.438 156.487C96.8723 147.858 94.15 140.283 94.15 133.74C94.15 123.56 97.3872 115.279 103.831 108.831C103.831 108.831 103.831 108.831 103.831 108.831C103.831 108.831 103.831 108.831 103.831 108.831C110.291 102.376 118.198 99.15 127.6 99.15C137.002 99.15 144.907 102.376 151.363 108.831C157.811 115.279 161.05 123.56 161.05 133.74C161.05 140.283 158.328 147.858 152.762 156.487ZM127.114 201.571L127.6 201.985L128.086 201.571C143.41 188.531 154.889 176.392 162.495 165.151L161.874 164.731L162.495 165.151C170.096 153.916 173.95 143.44 173.95 133.74C173.95 119.313 169.3 107.749 159.954 99.1312C150.655 90.5532 139.86 86.25 127.6 86.25C115.34 86.25 104.545 90.5531 95.2457 99.1311C85.8997 107.749 81.25 119.313 81.25 133.74C81.25 143.441 85.1059 153.916 92.7105 165.151C100.313 176.392 111.79 188.532 127.114 201.571Z" fill="#DBDBDB" stroke="#DBDBDB" stroke-width="1.5"/>
<mask id="path-3-inside-1_1202_867" fill="white">
<path d="M97 81C97 67.1929 108.193 56 122 56H133C146.807 56 158 67.1929 158 81V103H97V81Z"/>
</mask>
<path d="M87 81C87 61.67 102.67 46 122 46H133C152.33 46 168 61.67 168 81H148C148 72.7157 141.284 66 133 66H122C113.716 66 107 72.7157 107 81H87ZM158 103H97H158ZM87 103V81C87 61.67 102.67 46 122 46V66C113.716 66 107 72.7157 107 81V103H87ZM133 46C152.33 46 168 61.67 168 81V103H148V81C148 72.7157 141.284 66 133 66V46Z" fill="#DBDBDB" mask="url(#path-3-inside-1_1202_867)"/>
</g>
<path d="M325.446 82.308V116.612C325.446 119.001 326.001 120.751 327.11 121.86C328.305 122.884 330.267 123.396 332.998 123.396H341.318V138.5H330.054C314.95 138.5 307.398 131.161 307.398 116.484V82.308H298.95V67.588H307.398V50.052H325.446V67.588H341.318V82.308H325.446ZM372.127 78.596C374.431 74.8413 377.418 71.8973 381.087 69.764C384.842 67.6307 389.108 66.564 393.887 66.564V85.38H389.151C383.519 85.38 379.252 86.7027 376.351 89.348C373.535 91.9933 372.127 96.6013 372.127 103.172V138.5H354.207V67.588H372.127V78.596ZM401.349 102.788C401.349 95.62 402.757 89.2627 405.573 83.716C408.474 78.1693 412.357 73.9027 417.221 70.916C422.17 67.9293 427.674 66.436 433.733 66.436C439.024 66.436 443.632 67.5027 447.557 69.636C451.568 71.7693 454.768 74.4573 457.157 77.7V67.588H475.205V138.5H457.157V128.132C454.853 131.46 451.653 134.233 447.557 136.452C443.546 138.585 438.896 139.652 433.605 139.652C427.632 139.652 422.17 138.116 417.221 135.044C412.357 131.972 408.474 127.663 405.573 122.116C402.757 116.484 401.349 110.041 401.349 102.788ZM457.157 103.044C457.157 98.692 456.304 94.98 454.597 91.908C452.89 88.7507 450.586 86.3613 447.685 84.74C444.784 83.0333 441.669 82.18 438.341 82.18C435.013 82.18 431.941 82.9907 429.125 84.612C426.309 86.2333 424.005 88.6227 422.213 91.78C420.506 94.852 419.653 98.5213 419.653 102.788C419.653 107.055 420.506 110.809 422.213 114.052C424.005 117.209 426.309 119.641 429.125 121.348C432.026 123.055 435.098 123.908 438.341 123.908C441.669 123.908 444.784 123.097 447.685 121.476C450.586 119.769 452.89 117.38 454.597 114.308C456.304 111.151 457.157 107.396 457.157 103.044ZM488.099 103.044C488.099 95.7053 489.592 89.3053 492.579 83.844C495.566 78.2973 499.704 74.0307 504.995 71.044C510.286 67.972 516.344 66.436 523.171 66.436C531.96 66.436 539.214 68.6547 544.931 73.092C550.734 77.444 554.616 83.588 556.579 91.524H537.251C536.227 88.452 534.478 86.0627 532.003 84.356C529.614 82.564 526.627 81.668 523.043 81.668C517.923 81.668 513.87 83.5453 510.883 87.3C507.896 90.9693 506.403 96.2173 506.403 103.044C506.403 109.785 507.896 115.033 510.883 118.788C513.87 122.457 517.923 124.292 523.043 124.292C530.296 124.292 535.032 121.049 537.251 114.564H556.579C554.616 122.244 550.734 128.345 544.931 132.868C539.128 137.391 531.875 139.652 523.171 139.652C516.344 139.652 510.286 138.159 504.995 135.172C499.704 132.1 495.566 127.833 492.579 122.372C489.592 116.825 488.099 110.383 488.099 103.044ZM611.691 138.5L587.627 108.292V138.5H569.707V43.78H587.627V97.668L611.435 67.588H634.731L603.499 103.172L634.987 138.5H611.691ZM742.761 67.588L722.025 138.5H702.697L689.769 88.964L676.841 138.5H657.385L636.521 67.588H654.697L667.241 121.604L680.809 67.588H699.753L713.065 121.476L725.609 67.588H742.761ZM820.297 67.588L776.393 172.036H757.321L772.681 136.708L744.265 67.588H764.361L782.665 117.124L801.225 67.588H820.297ZM857.093 139.652C851.29 139.652 846.085 138.628 841.477 136.58C836.869 134.447 833.2 131.588 830.469 128.004C827.824 124.42 826.373 120.452 826.117 116.1H844.165C844.506 118.831 845.829 121.092 848.133 122.884C850.522 124.676 853.466 125.572 856.965 125.572C860.378 125.572 863.024 124.889 864.901 123.524C866.864 122.159 867.845 120.409 867.845 118.276C867.845 115.972 866.65 114.265 864.261 113.156C861.957 111.961 858.245 110.681 853.125 109.316C847.834 108.036 843.482 106.713 840.069 105.348C836.741 103.983 833.84 101.892 831.365 99.076C828.976 96.26 827.781 92.4627 827.781 87.684C827.781 83.7587 828.89 80.1747 831.109 76.932C833.413 73.6893 836.656 71.1293 840.837 69.252C845.104 67.3747 850.096 66.436 855.813 66.436C864.261 66.436 871.002 68.5693 876.037 72.836C881.072 77.0173 883.845 82.692 884.357 89.86H867.205C866.949 87.044 865.754 84.8253 863.621 83.204C861.573 81.4973 858.8 80.644 855.301 80.644C852.058 80.644 849.541 81.2413 847.749 82.436C846.042 83.6307 845.189 85.2947 845.189 87.428C845.189 89.8173 846.384 91.652 848.773 92.932C851.162 94.1267 854.874 95.364 859.909 96.644C865.029 97.924 869.253 99.2467 872.581 100.612C875.909 101.977 878.768 104.111 881.157 107.012C883.632 109.828 884.912 113.583 884.997 118.276C884.997 122.372 883.845 126.041 881.541 129.284C879.322 132.527 876.08 135.087 871.813 136.964C867.632 138.756 862.725 139.652 857.093 139.652ZM965.627 101.508C965.627 104.068 965.456 106.372 965.115 108.42H913.275C913.702 113.54 915.494 117.551 918.651 120.452C921.808 123.353 925.691 124.804 930.299 124.804C936.955 124.804 941.691 121.945 944.507 116.228H963.835C961.787 123.055 957.862 128.687 952.059 133.124C946.256 137.476 939.131 139.652 930.683 139.652C923.856 139.652 917.712 138.159 912.251 135.172C906.875 132.1 902.651 127.791 899.579 122.244C896.592 116.697 895.099 110.297 895.099 103.044C895.099 95.7053 896.592 89.2627 899.579 83.716C902.566 78.1693 906.747 73.9027 912.123 70.916C917.499 67.9293 923.686 66.436 930.683 66.436C937.424 66.436 943.44 67.8867 948.731 70.788C954.107 73.6893 958.246 77.828 961.147 83.204C964.134 88.4947 965.627 94.596 965.627 101.508ZM947.067 96.388C946.982 91.78 945.318 88.1107 942.075 85.38C938.832 82.564 934.864 81.156 930.171 81.156C925.734 81.156 921.979 82.5213 918.907 85.252C915.92 87.8973 914.086 91.6093 913.403 96.388H947.067Z" fill="#25292A"/>
<path d="M306.118 203.708C306.118 200.167 306.843 197.031 308.294 194.3C309.787 191.569 311.793 189.457 314.31 187.964C316.87 186.428 319.686 185.66 322.758 185.66C325.531 185.66 327.942 186.215 329.99 187.324C332.081 188.391 333.745 189.735 334.982 191.356V186.236H342.342V221.5H334.982V216.252C333.745 217.916 332.059 219.303 329.926 220.412C327.793 221.521 325.361 222.076 322.63 222.076C319.601 222.076 316.827 221.308 314.31 219.772C311.793 218.193 309.787 216.017 308.294 213.244C306.843 210.428 306.118 207.249 306.118 203.708ZM334.982 203.836C334.982 201.404 334.47 199.292 333.446 197.5C332.465 195.708 331.163 194.343 329.542 193.404C327.921 192.465 326.171 191.996 324.294 191.996C322.417 191.996 320.667 192.465 319.046 193.404C317.425 194.3 316.102 195.644 315.078 197.436C314.097 199.185 313.606 201.276 313.606 203.708C313.606 206.14 314.097 208.273 315.078 210.108C316.102 211.943 317.425 213.351 319.046 214.332C320.71 215.271 322.459 215.74 324.294 215.74C326.171 215.74 327.921 215.271 329.542 214.332C331.163 213.393 332.465 212.028 333.446 210.236C334.47 208.401 334.982 206.268 334.982 203.836ZM349.493 203.708C349.493 200.167 350.218 197.031 351.669 194.3C353.162 191.569 355.168 189.457 357.685 187.964C360.245 186.428 363.082 185.66 366.197 185.66C368.501 185.66 370.762 186.172 372.981 187.196C375.242 188.177 377.034 189.5 378.357 191.164V174.14H385.717V221.5H378.357V216.188C377.162 217.895 375.498 219.303 373.365 220.412C371.274 221.521 368.864 222.076 366.133 222.076C363.061 222.076 360.245 221.308 357.685 219.772C355.168 218.193 353.162 216.017 351.669 213.244C350.218 210.428 349.493 207.249 349.493 203.708ZM378.357 203.836C378.357 201.404 377.845 199.292 376.821 197.5C375.84 195.708 374.538 194.343 372.917 193.404C371.296 192.465 369.546 191.996 367.669 191.996C365.792 191.996 364.042 192.465 362.421 193.404C360.8 194.3 359.477 195.644 358.453 197.436C357.472 199.185 356.981 201.276 356.981 203.708C356.981 206.14 357.472 208.273 358.453 210.108C359.477 211.943 360.8 213.351 362.421 214.332C364.085 215.271 365.834 215.74 367.669 215.74C369.546 215.74 371.296 215.271 372.917 214.332C374.538 213.393 375.84 212.028 376.821 210.236C377.845 208.401 378.357 206.268 378.357 203.836ZM437.988 185.66C440.761 185.66 443.236 186.236 445.412 187.388C447.631 188.54 449.359 190.247 450.596 192.508C451.876 194.769 452.516 197.5 452.516 200.7V221.5H445.284V201.788C445.284 198.631 444.495 196.22 442.916 194.556C441.337 192.849 439.183 191.996 436.452 191.996C433.721 191.996 431.545 192.849 429.924 194.556C428.345 196.22 427.556 198.631 427.556 201.788V221.5H420.324V201.788C420.324 198.631 419.535 196.22 417.956 194.556C416.377 192.849 414.223 191.996 411.492 191.996C408.761 191.996 406.585 192.849 404.964 194.556C403.385 196.22 402.596 198.631 402.596 201.788V221.5H395.3V186.236H402.596V190.268C403.791 188.817 405.305 187.687 407.14 186.876C408.975 186.065 410.937 185.66 413.028 185.66C415.844 185.66 418.361 186.257 420.58 187.452C422.799 188.647 424.505 190.375 425.7 192.636C426.767 190.503 428.431 188.817 430.692 187.58C432.953 186.3 435.385 185.66 437.988 185.66ZM465.512 181.564C464.189 181.564 463.08 181.116 462.184 180.22C461.288 179.324 460.84 178.215 460.84 176.892C460.84 175.569 461.288 174.46 462.184 173.564C463.08 172.668 464.189 172.22 465.512 172.22C466.792 172.22 467.88 172.668 468.776 173.564C469.672 174.46 470.12 175.569 470.12 176.892C470.12 178.215 469.672 179.324 468.776 180.22C467.88 181.116 466.792 181.564 465.512 181.564ZM469.096 186.236V221.5H461.8V186.236H469.096ZM496.467 185.66C499.24 185.66 501.715 186.236 503.891 187.388C506.11 188.54 507.838 190.247 509.075 192.508C510.312 194.769 510.931 197.5 510.931 200.7V221.5H503.699V201.788C503.699 198.631 502.91 196.22 501.331 194.556C499.752 192.849 497.598 191.996 494.867 191.996C492.136 191.996 489.96 192.849 488.339 194.556C486.76 196.22 485.971 198.631 485.971 201.788V221.5H478.675V186.236H485.971V190.268C487.166 188.817 488.68 187.687 490.515 186.876C492.392 186.065 494.376 185.66 496.467 185.66Z" fill="#25292A"/>
<defs>
<filter id="filter0_d_1202_867" x="79.5" y="56" width="96.2002" height="148.97" filterUnits="userSpaceOnUse" color-interpolation-filters="sRGB">
<feFlood flood-opacity="0" result="BackgroundImageFix"/>
<feColorMatrix in="SourceAlpha" type="matrix" values="0 0 0 0 0 0 0 0 0 0 0 0 0 0 0 0 0 0 127 0" result="hardAlpha"/>
<feOffset dy="1"/>
<feGaussianBlur stdDeviation="0.5"/>
<feComposite in2="hardAlpha" operator="out"/>
<feColorMatrix type="matrix" values="0 0 0 0 0 0 0 0 0 0 0 0 0 0 0 0 0 0 0.25 0"/>
<feBlend mode="normal" in2="BackgroundImageFix" result="effect1_dropShadow_1202_867"/>
<feBlend mode="normal" in="SourceGraphic" in2="effect1_dropShadow_1202_867" result="shape"/>
</filter>
</defs>
</svg>
